<svg width="19" height="20" viewBox="0 0 19 20" fill="none" xmlns="http://www.w3.org/2000/svg">
    <path d="M17.3125 4.24107L13.8304 0.758929C13.4174 0.345982 12.5915 0 12 0H2.00002C1.4085 0 0.928589 0.479912 0.928589 1.07143V18.9286C0.928589 19.5201 1.4085 20 2.00002 20H17C17.5915 20 18.0714 19.5201 18.0714 18.9286V6.07143C18.0714 5.47991 17.7255 4.65402 17.3125 4.24107ZM12.3572 1.51786C12.5469 1.58482 12.7366 1.68527 12.8148 1.76339L16.3081 5.2567C16.3862 5.33482 16.4866 5.52455 16.5536 5.71429H12.3572V1.51786ZM16.6429 18.5714H2.35716V1.42857H10.9286V6.07143C10.9286 6.66295 11.4085 7.14286 12 7.14286H16.6429V18.5714ZM5.2143 8.92857V9.64286C5.2143 9.84375 5.37055 10 5.57145 10H13.4286C13.6295 10 13.7857 9.84375 13.7857 9.64286V8.92857C13.7857 8.72768 13.6295 8.57143 13.4286 8.57143H5.57145C5.37055 8.57143 5.2143 8.72768 5.2143 8.92857ZM13.4286 11.4286H5.57145C5.37055 11.4286 5.2143 11.5848 5.2143 11.7857V12.5C5.2143 12.7009 5.37055 12.8571 5.57145 12.8571H13.4286C13.6295 12.8571 13.7857 12.7009 13.7857 12.5V11.7857C13.7857 11.5848 13.6295 11.4286 13.4286 11.4286ZM13.4286 14.2857H5.57145C5.37055 14.2857 5.2143 14.442 5.2143 14.6429V15.3571C5.2143 15.558 5.37055 15.7143 5.57145 15.7143H13.4286C13.6295 15.7143 13.7857 15.558 13.7857 15.3571V14.6429C13.7857 14.442 13.6295 14.2857 13.4286 14.2857Z" fill="#272733"/>
</svg>
